<svg width="18" height="19" viewBox="0 0 18 19" fill="none" xmlns="http://www.w3.org/2000/svg">
<g id="&#240;&#159;&#166;&#134; icon &#34;trash&#34;">
<g id="Group">
<path id="Vector" d="M17.3135 4.76529C17.2951 4.76529 17.2674 4.76529 17.2397 4.76529C12.3559 4.30441 7.48133 4.1305 2.65292 4.59138L0.769567 4.76529C0.381819 4.80008 0.0402314 4.5392 0.00330295 4.17398C-0.0336255 3.80875 0.243338 3.4957 0.621854 3.46092L2.5052 3.287C7.41671 2.81743 12.3928 3.00004 17.3781 3.46092C17.7567 3.4957 18.0336 3.81745 17.9967 4.17398C17.969 4.51311 17.6643 4.76529 17.3135 4.76529Z" fill="white"/>
<path id="Vector_2" d="M5.77435 3.88704C5.73743 3.88704 5.7005 3.88704 5.65434 3.87834C5.28505 3.81747 5.02655 3.47833 5.09118 3.1305L5.29428 1.99135C5.442 1.15655 5.6451 0 7.79615 0H10.215C12.3753 0 12.5784 1.20003 12.7169 2.00004L12.92 3.1305C12.9846 3.48703 12.7261 3.82617 12.3568 3.87834C11.9783 3.93921 11.6182 3.69573 11.5628 3.3479L11.3597 2.21744C11.2305 1.4609 11.2028 1.31307 10.2242 1.31307H7.80538C6.82681 1.31307 6.80835 1.43481 6.66987 2.20874L6.45753 3.3392C6.40214 3.66095 6.10671 3.88704 5.77435 3.88704Z" fill="white"/>
<path id="Vector_3" d="M11.9688 18.6961H6.04176C2.81976 18.6961 2.69051 17.0178 2.58896 15.6613L1.98887 6.90455C1.96118 6.54802 2.2566 6.23498 2.63512 6.2089C3.02287 6.1915 3.34599 6.46107 3.37369 6.8176L3.97377 15.5743C4.07533 16.8961 4.11226 17.3918 6.04176 17.3918H11.9688C13.9075 17.3918 13.9445 16.8961 14.0368 15.5743L14.6369 6.8176C14.6646 6.46107 14.9969 6.1915 15.3754 6.2089C15.7539 6.23498 16.0494 6.53933 16.0217 6.90455L15.4216 15.6613C15.32 17.0178 15.1908 18.6961 11.9688 18.6961Z" fill="white"/>
<path id="Vector_4" d="M10.5375 13.9133H7.46324C7.0847 13.9133 6.77081 13.6177 6.77081 13.2612C6.77081 12.9046 7.0847 12.609 7.46324 12.609H10.5375C10.916 12.609 11.2299 12.9046 11.2299 13.2612C11.2299 13.6177 10.916 13.9133 10.5375 13.9133Z" fill="white"/>
<path id="Vector_5" d="M11.3129 10.435H6.69688C6.31837 10.435 6.00447 10.1393 6.00447 9.78282C6.00447 9.42629 6.31837 9.13063 6.69688 9.13063H11.3129C11.6914 9.13063 12.0053 9.42629 12.0053 9.78282C12.0053 10.1393 11.6914 10.435 11.3129 10.435Z" fill="white"/>
</g>
</g>
</svg>
